<svg width="32" height="32" viewBox="0 0 32 32" fill="none" xmlns="http://www.w3.org/2000/svg">
<path fill-rule="evenodd" clip-rule="evenodd" d="M23 16C23 15.4477 23.4477 15 24 15C24.5523 15 25 15.4477 25 16C25 16.5523 24.5523 17 24 17C23.4477 17 23 16.5523 23 16Z" stroke="#464646" stroke-width="2" stroke-linecap="round" stroke-linejoin="round"/>
<path fill-rule="evenodd" clip-rule="evenodd" d="M15 16C15 15.4477 15.4477 15 16 15C16.5523 15 17 15.4477 17 16C17 16.5523 16.5523 17 16 17C15.4477 17 15 16.5523 15 16Z" stroke="#464646" stroke-width="2" stroke-linecap="round" stroke-linejoin="round"/>
<path fill-rule="evenodd" clip-rule="evenodd" d="M7 16C7 15.4477 7.44772 15 8 15C8.55228 15 9 15.4477 9 16C9 16.5523 8.55228 17 8 17C7.44772 17 7 16.5523 7 16Z" stroke="#464646" stroke-width="2" stroke-linecap="round" stroke-linejoin="round"/>
</svg>
